/vscmnt/brussel_pixiu_data/_data_brussel/112/vsc11236/PredSimResults/SUBJ06mtu3D/weighted-LRposFixed/trackIG/worker_03.mot
version=1
nRows=9
nColumns=50
inDegrees=yes
endheader
                time	         pelvis_tilt	         pelvis_list	     pelvis_rotation	           pelvis_tx	           pelvis_ty	           pelvis_tz	       hip_flexion_r	     hip_adduction_r	      hip_rotation_r	        knee_angle_r	       ankle_angle_r	         mtp_angle_r	       hip_flexion_l	     hip_adduction_l	      hip_rotation_l	        knee_angle_l	       ankle_angle_l	         mtp_angle_l	    lumbar_extension	      lumbar_bending	     lumbar_rotation	 ercspn_r/activation	 intobl_r/activation	 extobl_r/activation	    abd_r/activation	    add_r/activation	hamstrings_r/activation	bifemsh_r/activation	glut_max_r/activation	iliopsoas_r/activation	rect_fem_r/activation	  vasti_r/activation	gastroc_r/activation	 soleus_r/activation	tib_ant_r/activation	 ercspn_l/activation	 intobl_l/activation	 extobl_l/activation	    abd_l/activation	    add_l/activation	hamstrings_l/activation	bifemsh_l/activation	glut_max_l/activation	iliopsoas_l/activation	rect_fem_l/activation	  vasti_l/activation	gastroc_l/activation	 soleus_l/activation	tib_ant_l/activation	
          1.28922669	         -8.13910380	         -4.78262949	          9.71316461	          1.44393389	          0.92595765	         -0.01691815	         31.57579929	          0.53995677	         -6.36452657	         -1.34505332	          6.62819702	          0.21265786	         -9.90385271	         -4.91639735	          7.81767477	         -6.51763077	         10.16909490	         29.57155540	         -1.43245491	          2.67588505	         -3.11702674	          0.10153516	          0.17245948	          0.02936196	          0.01071412	          0.10151177	          0.08289209	          0.22502659	          0.00999999	          0.09860920	          0.01000000	          0.00999999	          0.02458229	          0.00999999	          0.28778365	          0.05784607	          0.00999999	          0.00999999	          0.05896927	          0.01125477	          0.01952015	          0.14471821	          0.05764630	          0.44043204	          0.01000001	          0.01000000	          0.36549596	          0.33566129	          0.01793041	
          1.30211896	         -8.24650321	         -4.71139518	          9.76910838	          1.46135551	          0.92368227	         -0.01657125	         31.74071806	          0.64311496	         -6.13169505	         -3.12219766	          6.18486959	          0.21122807	        -10.21962650	         -4.90145171	          7.41850703	         -7.72136967	          9.52658309	         31.51901605	         -1.13660976	          3.01805368	         -3.26369446	          0.08357690	          0.14222727	          0.02416879	          0.00999999	          0.14463840	          0.07645621	          0.18522672	          0.06171338	          0.08116845	          0.01000000	          0.00999999	          0.02839487	          0.01821622	          0.29793096	          0.09518428	          0.00999999	          0.00999999	          0.04853953	          0.04358323	          0.01606768	          0.11912227	          0.04745055	          0.45380729	          0.01000002	          0.00999999	          0.33741841	          0.31694245	          0.01475910	
          1.31501122	         -8.33249652	         -4.62915226	          9.76433815	          1.47921744	          0.92166096	         -0.01614152	         31.69489590	          0.73503856	         -5.88314866	         -4.77873618	          5.70488664	          0.19580946	        -10.41969997	         -4.85888369	          6.98704734	         -9.21871184	          8.72661607	         33.52286951	         -0.81987348	          3.36149193	         -3.38432078	          0.07559240	          0.11707190	          0.01989412	          0.05851585	          0.11905659	          0.07579138	          0.15246616	          0.10249968	          0.06681239	          0.00999999	          0.00999999	          0.02337274	          0.01499437	          0.35347912	          0.10126514	          0.00999999	          0.00999999	          0.03995447	          0.03587489	          0.02153809	          0.09805343	          0.03905809	          0.44475528	          0.01000003	          0.01793041	          0.29796743	          0.29329087	          0.01214870	
          1.32790349	         -8.39972384	         -4.53308603	          9.69989885	          1.49724068	          0.92013332	         -0.01560228	         31.46726133	          0.84351200	         -5.67817599	         -6.12535226	          5.06579499	          0.17104462	        -10.40861776	         -4.77877297	          6.53310630	        -11.12715155	          7.71277608	         35.56915322	         -0.51139755	          3.69968257	         -3.47318265	          0.08524554	          0.09636570	          0.01637550	          0.11441171	          0.14034360	          0.06966910	          0.12549987	          0.14888906	          0.05499546	          0.00999999	          0.00999999	          0.01923887	          0.01234235	          0.38884065	          0.13191392	          0.00999999	          0.00999999	          0.03288782	          0.04813481	          0.02213189	          0.08071097	          0.03214999	          0.43323067	          0.01214867	          0.01475911	          0.24526670	          0.25312249	          0.00999999	
          1.34079576	         -8.44753226	         -4.42836648	          9.57960043	          1.51517606	          0.91926606	         -0.01497254	         31.14646544	          0.97124603	         -5.50833439	         -7.36463994	          4.58339013	          0.14004808	        -10.10111202	         -4.65901152	          6.05447746	        -13.56249331	          6.47751911	         37.54901552	         -0.23278539	          4.04118632	         -3.52592659	          0.08255510	          0.07932175	          0.01347920	          0.15237857	          0.15316571	          0.06349197	          0.10330303	          0.17871903	          0.04526855	          0.00999999	          0.01454054	          0.01583614	          0.01060990	          0.41005431	          0.16233526	          0.00999999	          0.00999999	          0.02707104	          0.06743510	          0.02349486	          0.06643583	          0.02646370	          0.40398904	          0.01000000	          0.01214870	          0.20188701	          0.20835337	          0.00999999	
          1.35368802	         -8.47548876	         -4.31787502	          9.40585779	          1.53281875	          0.91913356	         -0.01427892	         30.78054761	          1.11218577	         -5.35856116	         -8.56742495	          4.31290274	          0.11667875	         -9.43982020	         -4.50047599	          5.54090557	        -16.59495099	          5.04165843	         39.23729376	         -0.00049487	          4.39147410	         -3.53949011	          0.07596189	          0.06529231	          0.01109517	          0.16734308	          0.12607569	          0.06349207	          0.08503209	          0.18251160	          0.03726202	          0.00999999	          0.09456799	          0.01303524	          0.00999999	          0.41781017	          0.17561191	          0.00999999	          0.00999999	          0.02228305	          0.09578101	          0.02956389	          0.05468550	          0.02178314	          0.35175439	          0.00999999	          0.00999999	          0.16617978	          0.17150245	          0.00999999	
          1.36658029	         -8.48552606	         -4.19308517	          9.18222682	          1.55002536	          0.91979379	         -0.01356411	         30.33065514	          1.25744552	         -5.20034698	         -9.62858655	          4.19307278	          0.09446374	         -8.40851048	         -4.30054057	          4.97728078	        -20.22145249	          3.48805473	         40.17944295	          0.17377598	          4.74363793	         -3.51340693	          0.06252671	          0.05374423	          0.00999999	          0.16788037	          0.10377701	          0.05805884	          0.06999269	          0.17198174	          0.03067158	          0.00999999	          0.16501382	          0.01072973	          0.01000000	          0.41218841	          0.18901967	          0.00999999	          0.00999999	          0.01834191	          0.11399776	          0.02433500	          0.04595621	          0.01793041	          0.28954050	          0.00999999	          0.00999999	          0.13678799	          0.14116925	          0.00999999	
          1.37947256	         -8.47934685	         -4.04183338	          8.91024953	          1.56676628	          0.92124029	         -0.01285382	         29.74118334	          1.39889125	         -5.00602940	        -10.44888416	          4.23329563	          0.07873688	         -7.04027212	         -4.06356705	          4.35954393	        -24.35689245	          1.84948360	         40.02998199	          0.28885234	          5.08280104	         -3.44813738	          0.05146778	          0.04423863	          0.00999999	          0.16148065	          0.08542224	          0.05579277	          0.05761326	          0.15618683	          0.02524678	          0.00999999	          0.20281388	          0.01000000	          0.01000000	          0.39706132	          0.19592266	          0.00999999	          0.00999999	          0.01509782	          0.12581965	          0.02003093	          0.06292344	          0.01475910	          0.23833022	          0.00999999	          0.00999999	          0.11259465	          0.11620101	          0.00999999	
          1.39236482	         -8.45860934	         -3.85061605	          8.59050017	          1.58307351	          0.92338051	         -0.01216337	         28.98345342	          1.52312905	         -4.75709161	        -10.97657022	          4.39791226	          0.07162816	         -5.39975416	         -3.79207490	          3.71179357	        -28.81308381	         -0.07391730	         38.95315320	          0.34970699	          5.39108529	         -3.34426283	          0.04236480	          0.03641426	          0.00999999	          0.15510105	          0.07031383	          0.05395620	          0.04742335	          0.13847131	          0.02078145	          0.00999999	          0.21284603	          0.00999999	          0.00999999	          0.37596631	          0.19673715	          0.00999999	          0.00999999	          0.01242751	          0.13548790	          0.01648811	          0.07742302	          0.01214870	          0.19617737	          0.00999999	          0.00999999	          0.09268033	          0.09564884	          0.01093141	
